<svg xmlns="http://www.w3.org/2000/svg" width="50" height="50" viewBox="0 0 50 50">
  <g id="chart" transform="translate(-0.625 -0.625)">
    <path id="Path_74" data-name="Path 74" d="M11.875,5.312H2.708A2.086,2.086,0,0,0,.625,7.4V40.729a2.086,2.086,0,0,0,2.083,2.083h9.167a2.086,2.086,0,0,0,2.083-2.083V7.4a2.086,2.086,0,0,0-2.083-2.083Zm-1.25,34.167H3.958V8.645h6.667Z" transform="translate(0 7.813)" fill="#afd0ff"/>
    <path id="Path_75" data-name="Path 75" d="M18.749,9.374H9.583A2.086,2.086,0,0,0,7.5,11.458v22.5a2.086,2.086,0,0,0,2.083,2.083h9.167a2.086,2.086,0,0,0,2.083-2.083v-22.5a2.086,2.086,0,0,0-2.083-2.083ZM17.5,32.708H10.833v-20H17.5Z" transform="translate(11.459 14.584)" fill="#afd0ff"/>
    <path id="Path_76" data-name="Path 76" d="M25.624.625H16.457a2.086,2.086,0,0,0-2.083,2.083V48.542a2.086,2.086,0,0,0,2.083,2.083h9.167a2.086,2.086,0,0,0,2.083-2.083V2.708A2.086,2.086,0,0,0,25.624.625Zm-1.25,46.667H17.707V3.958h6.667Z" transform="translate(22.917 0)" fill="#afd0ff"/>
  </g>
</svg>
