<svg xmlns="http://www.w3.org/2000/svg" width="52.37" height="51.333" viewBox="0 0 52.37 51.333">
  <g id="coin-bag-line" transform="translate(-1.141 -1.111)">
    <path id="Path_67" data-name="Path 67" d="M20.389,17.16a1.6,1.6,0,0,0-1.6-1.6H9.16a1.6,1.6,0,1,0,0,3.208h9.625A1.6,1.6,0,0,0,20.389,17.16Z" transform="translate(12.108 27.264)" fill="#afd0ff"/>
    <path id="Path_68" data-name="Path 68" d="M19.863,13.333H10.238a1.6,1.6,0,1,0,0,3.208h9.625a1.6,1.6,0,0,0,0-3.208Z" transform="translate(14.142 23.069)" fill="#afd0ff"/>
    <path id="Path_69" data-name="Path 69" d="M19.563,17.778H9.938a1.6,1.6,0,0,0,0,3.208h9.625a1.6,1.6,0,0,0,0-3.208Z" transform="translate(13.576 31.458)" fill="#afd0ff"/>
    <path id="Path_70" data-name="Path 70" d="M26.556,17.778H15.327a1.6,1.6,0,1,0,0,3.208H26.556a1.6,1.6,0,0,0,0-3.208Z" transform="translate(23.747 31.458)" fill="#afd0ff"/>
    <path id="Path_71" data-name="Path 71" d="M27.111,15.556H15.882a1.6,1.6,0,0,0,0,3.208H27.111a1.6,1.6,0,1,0,0-3.208Z" transform="translate(24.796 27.264)" fill="#afd0ff"/>
    <path id="Path_72" data-name="Path 72" d="M51.971,39.611a44.917,44.917,0,0,0-4.524-16.234,32.468,32.468,0,0,0-10.138-11.5l3.85-8.486a1.6,1.6,0,0,0-.112-1.6,1.6,1.6,0,0,0-1.283-.674h-26.2a1.6,1.6,0,0,0-1.46,2.278l3.93,8.518A32.613,32.613,0,0,0,5.964,23.377c-3.449,6.417-4.524,14.261-4.813,19.7a5.775,5.775,0,0,0,1.6,4.347,6.08,6.08,0,0,0,4.4,1.716H17.1V46.028H7.022a2.7,2.7,0,0,1-1.941-.834,2.6,2.6,0,0,1-.722-1.973c.225-4.187,1.107-12.16,4.428-18.368A28.875,28.875,0,0,1,18.829,13.944h1.6a49.424,49.424,0,0,0-3,4.684,36.543,36.543,0,0,0-2.358,5.358l2.2,1.476a38.5,38.5,0,0,1,2.39-5.566,46.682,46.682,0,0,1,3.93-5.951h1.6a34.41,34.41,0,0,1,2.262,8.021,36.158,36.158,0,0,1,.513,6.192l2.535-1.781a38.741,38.741,0,0,0-.513-4.813,39.816,39.816,0,0,0-2.053-7.62h1.251l1.46-3.208H19.038L16.07,4.319H37.261l-4.01,8.775a15.93,15.93,0,0,1,1.973,1.251,29.886,29.886,0,0,1,9.4,10.539,42.655,42.655,0,0,1,4.123,14.726Z" transform="translate(0 0)" fill="#afd0ff"/>
  </g>
</svg>
