<svg xmlns="http://www.w3.org/2000/svg" width="52.623" height="49.333" viewBox="0 0 52.623 49.333">
  <g id="date-line" transform="translate(-1.111 -1.111)">
    <path id="Path_28" data-name="Path 28" d="M50.856,3.333H45.512V6.622h4.933V42.8H4.4V6.622H9.334V3.333H3.989A2.927,2.927,0,0,0,1.111,6.31v36.8a2.927,2.927,0,0,0,2.878,2.976H50.856a2.927,2.927,0,0,0,2.878-2.976V6.31a2.927,2.927,0,0,0-2.878-2.976Z" transform="translate(0 4.356)" fill="#afd0ff"/>
    <path id="Path_29" data-name="Path 29" d="M4.444,7.778H7.733v3.289H4.444Z" transform="translate(6.534 13.067)" fill="#afd0ff"/>
    <path id="Path_30" data-name="Path 30" d="M7.778,7.778h3.289v3.289H7.778Z" transform="translate(13.067 13.067)" fill="#afd0ff"/>
    <path id="Path_31" data-name="Path 31" d="M11.111,7.778H14.4v3.289H11.111Z" transform="translate(19.6 13.067)" fill="#afd0ff"/>
    <path id="Path_32" data-name="Path 32" d="M14.445,7.778h3.289v3.289H14.445Z" transform="translate(26.134 13.067)" fill="#afd0ff"/>
    <path id="Path_33" data-name="Path 33" d="M4.444,10.556H7.733v3.289H4.444Z" transform="translate(6.534 18.511)" fill="#afd0ff"/>
    <path id="Path_34" data-name="Path 34" d="M7.778,10.556h3.289v3.289H7.778Z" transform="translate(13.067 18.511)" fill="#afd0ff"/>
    <path id="Path_35" data-name="Path 35" d="M11.111,10.556H14.4v3.289H11.111Z" transform="translate(19.6 18.511)" fill="#afd0ff"/>
    <path id="Path_36" data-name="Path 36" d="M14.445,10.556h3.289v3.289H14.445Z" transform="translate(26.134 18.511)" fill="#afd0ff"/>
    <path id="Path_37" data-name="Path 37" d="M4.444,13.333H7.733v3.289H4.444Z" transform="translate(6.534 23.956)" fill="#afd0ff"/>
    <path id="Path_38" data-name="Path 38" d="M7.778,13.333h3.289v3.289H7.778Z" transform="translate(13.067 23.956)" fill="#afd0ff"/>
    <path id="Path_39" data-name="Path 39" d="M11.111,13.333H14.4v3.289H11.111Z" transform="translate(19.6 23.956)" fill="#afd0ff"/>
    <path id="Path_40" data-name="Path 40" d="M14.445,13.333h3.289v3.289H14.445Z" transform="translate(26.134 23.956)" fill="#afd0ff"/>
    <path id="Path_41" data-name="Path 41" d="M6.644,14.267a1.644,1.644,0,0,0,1.644-1.644V2.756A1.644,1.644,0,0,0,5,2.756v9.867A1.644,1.644,0,0,0,6.644,14.267Z" transform="translate(7.623 0)" fill="#afd0ff"/>
    <path id="Path_42" data-name="Path 42" d="M15.533,14.267a1.644,1.644,0,0,0,1.644-1.644V2.756a1.644,1.644,0,1,0-3.289,0v9.867A1.644,1.644,0,0,0,15.533,14.267Z" transform="translate(25.045 0)" fill="#afd0ff"/>
    <path id="Path_43" data-name="Path 43" d="M7.222,3.333H23.667V6.622H7.222Z" transform="translate(11.978 4.356)" fill="#afd0ff"/>
  </g>
</svg>
